<svg width="21" height="20" viewBox="0 0 21 20" fill="none" xmlns="http://www.w3.org/2000/svg">
<g clip-path="url(#clip0_75_3372)">
<path d="M10.9863 3.00426C7.32822 3.00426 4.36279 5.96969 4.36279 9.62773C4.36279 13.2858 7.32822 16.2512 10.9863 16.2512C14.6443 16.2512 17.6097 13.2858 17.6097 9.62773C17.6097 5.96969 14.6443 3.00426 10.9863 3.00426ZM10.9862 14.6535C8.21506 14.6535 5.96053 12.3989 5.96053 9.62777C5.96053 6.8566 8.21506 4.60207 10.9862 4.60207C13.7574 4.60207 16.0119 6.8566 16.0119 9.62777C16.0119 12.3989 13.7574 14.6535 10.9862 14.6535Z" fill="#2E3136"/>
<path d="M10.9863 5.94918C8.95793 5.94918 7.30774 7.59937 7.30774 9.62773C7.30774 11.6561 8.95793 13.3063 10.9863 13.3063C13.0147 13.3063 14.6648 11.6561 14.6648 9.62773C14.6648 7.59937 13.0147 5.94918 10.9863 5.94918Z" fill="#2E3136"/>
<path d="M20.2494 10.1831V2.13437C20.2494 2.05672 20.1998 1.9877 20.1261 1.96289C20.0525 1.93813 19.9713 1.96316 19.9243 2.02504C18.9201 3.34937 18.3766 4.96578 18.3766 6.62777V9.57223C18.3766 9.90992 18.6503 10.1837 18.9881 10.1837H19.243C18.9917 12.7791 18.8256 16.4091 18.8256 16.8341C18.8256 17.5037 19.2378 18.0466 19.7462 18.0466C20.2546 18.0466 20.6667 17.5037 20.6667 16.8341C20.6667 16.4091 20.5007 12.7785 20.2494 10.1831Z" fill="#2E3136"/>
<path d="M3.33929 8.58762C3.84874 8.27902 4.18925 7.71949 4.18925 7.08035L3.9369 2.95453C3.92726 2.79727 3.7969 2.67465 3.63933 2.67465C3.4689 2.67465 3.33312 2.81742 3.34159 2.98754L3.50569 6.29648C3.50569 6.4825 3.35487 6.63324 3.16894 6.63324C2.98296 6.63324 2.83218 6.48242 2.83218 6.29648L2.75019 2.98891C2.74585 2.8141 2.60292 2.67469 2.42804 2.67469C2.25315 2.67469 2.11026 2.81414 2.10589 2.98891L2.0239 6.29648C2.0239 6.4825 1.87308 6.63324 1.68714 6.63324C1.50116 6.63324 1.35038 6.48242 1.35038 6.29648L1.51448 2.98754C1.52292 2.81734 1.38706 2.67465 1.21675 2.67465C1.05917 2.67465 0.928818 2.79727 0.919209 2.95453L0.666748 7.08039C0.666748 7.71953 1.00722 8.27902 1.51671 8.58766C1.84827 8.78848 2.03312 9.16394 1.99038 9.54926C1.70276 12.1414 1.50745 16.3732 1.50745 16.8342C1.50745 17.5038 1.9196 18.0466 2.428 18.0466C2.9364 18.0466 3.34854 17.5037 3.34854 16.8342C3.34854 16.3732 3.15319 12.1414 2.86562 9.54926C2.82284 9.16414 3.00788 8.78836 3.33929 8.58762Z" fill="#2E3136"/>
</g>
<defs>
<clipPath id="clip0_75_3372">
<rect width="20" height="20" fill="white" transform="translate(0.666748)"/>
</clipPath>
</defs>
</svg>
